#!OML:ASF F:\VICON\USERDATA\INSTALL\Justin_Nancy\Justin_Nancy.ASF
:FULLY-SPECIFIED
:DEGREES
397
root -11.4618 17.5637 16.984 0.420369 -47.1633 2.20558
lowerback 3.84908 0.691339 -1.57953
upperback -0.28374 0.884883 1.59505
thorax -2.4995 0.471619 2.4747
lowerneck -15.0322 -3.32833 -10.0506
upperneck 24.2785 -3.52088 4.94774
head 10.5472 -2.0249 2.97778
rclavicle 5.28767e-014 -7.15625e-015
rhumerus -32.0294 -11.7009 -79.3786
rradius 31.982
rwrist 4.10435
rhand -13.7679 12.1856
rfingers 7.12502
rthumb 12.3529 -17.4295
lclavicle 5.28767e-014 -7.15625e-015
lhumerus -33.3009 18.8459 81.4561
lradius 20.8885
lwrist -13.4964
lhand -13.954 25.2426
lfingers 7.12502
lthumb 12.1735 54.8684
rfemur -3.92003 1.01726 20.6659
rtibia 52.5995
rfoot 13.4435 -4.44267
rtoes 8.12483
lfemur -17.3924 1.33138 -25.6376
ltibia 18.2081
lfoot -4.01968 -3.39609
ltoes -2.36624
398
root -11.5453 17.5775 17.0895 -0.120091 -47.1606 2.82752
lowerback 4.04852 0.71843 -2.00236
upperback -0.237523 0.8945 1.4089
thorax -2.56813 0.481498 2.51831
lowerneck -14.9647 -3.33213 -9.80158
upperneck 23.9358 -3.56533 4.87732
head 10.4053 -2.02329 2.90004
rclavicle 9.21864e-015 -1.74931e-014
rhumerus -32.1759 -11.459 -79.6272
rradius 32.0174
rwrist 3.96874
rhand -13.8143 11.817
rfingers 7.12502
rthumb 12.3082 -17.8007
lclavicle 9.21864e-015 -1.74931e-014
lhumerus -33.0184 17.9919 81.7424
lradius 21.3027
lwrist -12.9713
lhand -14.2337 25.4373
lfingers 7.12502
lthumb 11.9037 55.0789
rfemur -5.43532 0.693373 19.9958
rtibia 55.0754
rfoot 13.6896 -1.85497
rtoes 9.73274
lfemur -16.6878 1.26355 -26.1359
ltibia 17.893
lfoot -3.76208 -3.5294
ltoes 0.297888
399
root -11.6268 17.5913 17.1937 -0.23773 -47.1978 2.76143
lowerback 4.4637 0.570738 -2.13262
upperback -0.336521 0.688988 1.58967
thorax -2.89546 0.387403 2.78869
lowerneck -14.6467 -3.19382 -10.1363
upperneck 23.6593 -3.31897 4.91493
head 10.2313 -1.93518 3.00155
rclavicle -9.24349e-014 -1.35174e-014
rhumerus -32.4667 -10.5316 -79.7089
rradius 32.0021
rwrist 3.93334
rhand -13.9551 11.3852
rfingers 7.12502
rthumb 12.1724 -18.2406
lclavicle -9.24349e-014 -1.35174e-014
lhumerus -33.2121 17.9667 81.9168
lradius 21.7558
lwrist -12.4475
lhand -14.5554 25.4097
lfingers 7.12502
lthumb 11.5935 55.069
rfemur -6.88406 0.342443 19.9161
rtibia 57.3516
rfoot 15.2372 -2.15333
rtoes 10.1413
lfemur -16.099 1.12241 -26.0648
ltibia 17.8458
lfoot -3.53623 -3.47095
ltoes 3.76567
400
root -11.7076 17.5993 17.2968 0.0413372 -47.2276 1.94913
lowerback 5.02731 0.451417 -1.66474
upperback -0.348868 0.556029 1.85942
thorax -3.21466 0.319122 2.81139
lowerneck -14.4918 -3.13921 -10.4072
upperneck 23.527 -3.18994 4.9282
head 10.1493 -1.89809 3.06797
rclavicle -8.32411e-015 -1.51076e-014
rhumerus -32.6789 -9.99731 -79.6514
rradius 31.8743
rwrist 4.36292
rhand -13.7713 11.6467
rfingers 7.12502
rthumb 12.3496 -17.9685
lclavicle -8.32411e-015 -1.51076e-014
lhumerus -33.1144 17.4106 82.2715
lradius 22.0247
lwrist -11.6982
lhand -14.5261 25.4332
lfingers 7.12502
lthumb 11.6218 55.091
rfemur -8.09623 0.10172 20.5055
rtibia 59.4035
rfoot 15.9939 -2.88693
rtoes 10.8072
lfemur -15.3219 1.07031 -25.4763
ltibia 17.9063
lfoot -3.7717 -3.25207
ltoes 5.83987
401
root -11.7887 17.599 17.4008 -0.160232 -47.2186 1.8709
lowerback 5.36065 0.436869 -1.61677
upperback -0.201859 0.535002 1.85951
thorax -3.2484 0.306335 2.78506
lowerneck -14.6064 -3.14701 -10.3669
upperneck 23.4377 -3.21055 4.99726
head 10.1405 -1.89174 3.08144
rclavicle 4.49253e-014 -1.59028e-014
rhumerus -32.6571 -10.1212 -79.6438
rradius 31.7071
rwrist 5.13553
rhand -13.5855 11.9665
rfingers 7.12502
rthumb 12.5287 -17.6378
lclavicle 4.49253e-014 -1.59028e-014
lhumerus -32.6261 16.7693 82.5645
lradius 22.157
lwrist -11.3828
lhand -14.224 25.4056
lfingers 7.12502
lthumb 11.9131 55.0467
rfemur -9.22246 -0.197279 20.4694
rtibia 61.347
rfoot 15.6581 -3.76094
rtoes 12.0298
lfemur -14.62 1.39459 -25.5267
ltibia 18.0631
lfoot -4.34216 -3.48978
ltoes 7.89708
402
root -11.8716 17.6 17.5113 -0.522336 -47.08 2.27195
lowerback 5.39196 0.436595 -1.76074
upperback -0.0837202 0.519286 1.68201
thorax -3.14247 0.297093 2.68349
lowerneck -14.6951 -3.17982 -10.131
upperneck 23.307 -3.28404 4.9341
head 10.1105 -1.90671 3.00705
rclavicle -1.86858e-014 -3.97569e-015
rhumerus -32.5475 -10.6423 -79.6764
rradius 31.3685
rwrist 5.6132
rhand -13.7279 11.6631
rfingers 7.12502
rthumb 12.3914 -17.9497
lclavicle -1.86858e-014 -3.97569e-015
lhumerus -32.2277 16.3237 82.6698
lradius 22.4075
lwrist -11.3987
lhand -14.0297 25.3309
lfingers 7.12502
lthumb 12.1005 54.961
rfemur -10.4668 -0.592925 20.0019
rtibia 63.1925
rfoot 14.6081 -4.71379
rtoes 14.2808
lfemur -14.1485 1.11146 -25.8619
ltibia 18.2231
lfoot -4.61406 -3.48455
ltoes 11.5943
403
root -11.9577 17.6044 17.6252 -1.08375 -46.9405 3.03099
lowerback 5.45061 0.499474 -2.20612
upperback -0.121029 0.568221 1.46045
thorax -3.21917 0.328825 2.70095
lowerneck -14.7356 -3.21974 -9.90632
upperneck 23.4643 -3.39575 4.91594
head 10.1787 -1.94337 2.94981
rclavicle 1.50082e-014 -7.95139e-016
rhumerus -32.9487 -10.7447 -79.5982
rradius 31.4019
rwrist 5.66956
rhand -13.9215 11.3873
rfingers 7.12502
rthumb 12.2048 -18.2366
lclavicle 1.50082e-014 -7.95139e-016
lhumerus -32.1233 15.9484 82.7463
lradius 22.8009
lwrist -11.2555
lhand -14.7917 25.029
lfingers 7.12502
lthumb 11.3656 54.701
rfemur -11.803 -1.13146 19.2567
rtibia 64.8985
rfoot 13.2201 -5.09683
rtoes 14.6521
lfemur -13.6109 1.39674 -26.6242
ltibia 18.2534
lfoot -4.95069 -3.8022
ltoes 10.9571
